<svg xmlns="http://www.w3.org/2000/svg" viewBox="0 0 64 64"><defs><linearGradient id="bg" x1="6" y1="4" x2="58" y2="60" gradientUnits="userSpaceOnUse"><stop offset="0" stop-color="#5BA3FF"/><stop offset="0.55" stop-color="#5292F9"/><stop offset="1" stop-color="#7C4DFF"/></linearGradient><linearGradient id="panel" x1="12" y1="15" x2="38" y2="39" gradientUnits="userSpaceOnUse"><stop offset="0" stop-color="#182742"/><stop offset="1" stop-color="#0A1220"/></linearGradient></defs><rect width="64" height="64" rx="15" fill="url(#bg)"/><rect x="5" y="10" width="28" height="24" rx="6" fill="#091221" fill-opacity=".24" stroke="#FFF" stroke-opacity=".12" stroke-width="1.4"/><rect x="10" y="15" width="28" height="24" rx="6" fill="url(#panel)" stroke="#FFF" stroke-opacity=".22" stroke-width="1.6"/><rect x="14" y="19" width="18" height="3" rx="1.5" fill="#FFF" fill-opacity=".14"/><path d="M15 33.5 20.2 28.8 24.7 31.7 30.3 24.8 34 27.2" fill="none" stroke="#74F3D6" stroke-width="3" stroke-linecap="round" stroke-linejoin="round"/><path d="M36 31.5h7.5" fill="none" stroke="#FFF" stroke-width="3.2" stroke-linecap="round"/><path d="m40.7 27.2 5.8 4.3-5.8 4.3" fill="none" stroke="#FFF" stroke-width="3.2" stroke-linecap="round" stroke-linejoin="round"/><path d="M44 14h11c2.2 0 4 1.8 4 4v24c0 2.2-1.8 4-4 4H44c-2.2 0-4-1.8-4-4V18c0-2.2 1.8-4 4-4Z" fill="#FFF"/><path d="M52 14v6c0 1.7 1.3 3 3 3h4" fill="none" stroke="#D8E6FF" stroke-width="2.2"/><path d="M45.8 28.2h8m-8 5h8m-8 5h4.8" fill="none" stroke="#5292F9" stroke-width="2.3" stroke-linecap="round"/></svg>